<svg version="1" xmlns="http://www.w3.org/2000/svg" width="2572" height="2572" viewBox="0 0 1929.000000 1929.000000"><path d="M1117 624.1c-5.6 2.2-11.1 2.8-41.9 4.8-15.9 1.1-21.5 2.3-15.4 3.5 1.5.3 10.2 1 19.3 1.7 9.1.6 16.7 1.3 16.9 1.5.2.2-1.2 1.6-3 3.1-1.9 1.5-6.9 6-11.1 10-5.1 4.9-8.5 7.3-10.1 7.3-4.5 0-46.2 3-49.9 3.6-2.9.4-3.8 1-3.8 2.5 0 2.5 4.6 5.3 14.5 8.5 9.6 3.2 20 7.8 20.9 9.2.3.5-4.3 8.6-10.3 17.9-11.9 18.6-23.3 38.8-36.6 65.3-10.5 21-13.2 24.8-20.2 29.7-2.9 2-5.3 4.2-5.3 4.8 0 .7 1.9 2.5 4.2 4 3.7 2.5 4 2.9 2.5 4-.9.7-5 1.7-8.9 2.4-29 4.7-31.3 5.2-32.5 6.8-3.4 4.5-.3 9.9 9.5 16.8 13.7 9.5 15.8 12.8 12.8 19.4-1 2-6.9 12.8-13.1 24.1-6.2 11.3-16.1 31.3-22 44.5-5.8 13.2-10.8 24.2-11.1 24.4-.2.2-6.1 1-13.1 1.7-7.1.7-12.9 1.3-13 1.3-.2.1-.3.5-.3 1s3.2 1.7 7.2 2.6c9.6 2.2 11.1 3 7.5 4.4-2.2.9-24.8 5.1-27.1 5.1-.3 0-.6.6-.6 1.3 0 .8 3.2 2.3 8.1 3.8l8.2 2.4-12.9 11.5c-17.4 15.6-28.4 24.6-39.6 32.6-8.9 6.3-20.6 13-21.4 12.1-.9-.8 17.6-30 38.8-61 35.3-51.9 45.8-69.7 52.4-89.2 3.5-10.1 3.8-11.9 3.8-22.5.1-10.6-.1-11.9-2.6-16.6-4.7-9-11.5-13.7-22.6-15.6-7.9-1.3-14.8-.5-28.7 3.7-7.5 2.2-10.5 2.5-47.5 3.5-41.4 1.1-52.3 1.7-51.5 3 .8 1.2 7.2 1.9 39 4 47.3 3.1 51 3.7 38.3 6-6.8 1.2-7.6 1.6-13.6 7.4-7.9 7.6-16.5 18.3-35.6 44.4-8.2 11.1-15 20.1-15.2 19.9-.2-.2.8-3.2 2.2-6.7 1.4-3.5 4.1-11.9 6-18.8 7.8-28.7 2.8-46.9-14.5-52.2-6.1-1.9-7.6-2-32-.9-32.8 1.4-36.8 2.9-11.8 4.4l10.7.7-4.2 3c-2.4 1.7-5.6 4.3-7.3 5.8-2.7 2.5-4.2 2.9-14.7 3.9-6.4.6-12.4 1.4-13.3 1.7-3.1 1.2-.7 2.9 6.8 4.7 4.2 1.1 7.7 2.3 7.7 2.7 0 .4-2.1 3.1-4.7 6.1-2.7 3-7.6 8.9-11.1 13.1-4.5 5.5-7.6 8.3-10.8 9.7-4.9 2.2-6.1 4-4.5 6.9.9 1.7-.7 4.8-11.2 21-14.3 22.3-14.9 23.2-14.3 21.2.2-.8 7.3-18.4 15.6-39 16.7-41 17.9-45.3 14.2-52-3.6-6.6-6.1-7.2-28.2-6.6-10.7.3-20.8.8-22.3 1.2-4.2 1-3 3.6 2.8 5.6 9 3.3 12.5 5.1 12.5 6.5 0 .7-6.1 13.5-13.5 28.4-15.5 30.9-12.9 28.2-31.5 33.5-15.4 4.3-20.7 7.6-16.7 10.1.6.4 5.7 2.3 11.1 4.3 5.5 1.9 10.1 4 10.3 4.6.6 1.7-4.1 3.4-24.5 8.4-10.6 2.7-20.4 5.6-21.8 6.5-1.9 1.2-2.4 2.4-2.4 5.8 0 5.2 1.7 8 10.9 18.1 8.4 9.2 10.3 12.5 9.9 16.9-.3 2.8-1.2 3.7-7.8 7.5-12 6.9-38.5 19.6-51.4 24.7-6.5 2.6-17.9 6.3-25.5 8.2-12.5 3.2-15.1 3.6-32.2 4-25.3.7-39.5-1.9-58.5-10.7-22.3-10.4-32.5-35.3-30.2-73.6.6-11.1 3.6-29.5 4.7-29.3.3 0 2.7 4.4 5.3 9.7 11.7 24 34.1 39.2 62.6 42.3 18.8 2 39.3 0 57.2-5.6 34.5-10.9 71-46.5 92.1-90 7.5-15.5 11-26.3 14-43.3 3.6-21.1 1.6-36.9-6.6-53.8-5.1-10.6-11.9-18.3-22.4-25.4-8-5.4-12.7-7.2-26-10-8.5-1.8-12.1-2.1-19.5-1.6-5 .4-14.9 1.1-22.1 1.6-7.1.5-30.5.9-52 1-36.5.1-48.4.7-46 2.2.9.6 22.8 2 49 3.3 6.6.3 14.2.8 16.9 1.2l4.9.5-9.4 3.9c-10.6 4.4-13.3 4.7-55.9 7.4-42.5 2.7-57 4.1-57 5.5 0 1.4 8.2 1.9 42 3 17.9.5 36.8 1.3 42 1.7l9.5.6L453 776c-5.8 1-13 2.2-16 2.8-3 .6-14 1.8-24.5 2.7-16.9 1.4-22 2.4-20.4 3.9.3.3 6.3 1.2 13.4 2.1 20.5 2.4 19.4 1.8 12.7 7.3-3.1 2.5-9.6 8.1-14.4 12.5-8.6 7.8-8.8 7.9-15.5 8.7-7.9 1-46.5 3.3-90.8 5.5-69.3 3.4-88 5.2-83.5 8 2 1.2 27.5 3.4 77.5 6.5 60.5 3.7 77.5 5.3 77.5 7.2 0 .5-2.5 4.7-5.6 9.4-6.3 9.5-12.2 14.8-22 19.4-18.3 8.8-31.3 10.8-82.9 13-26.5 1.1-38.9 2.2-45.3 4-3.9 1-7 3.5-5.9 4.6 1.7 1.7 19.8 4.1 60.2 7.9 41.1 3.9 57.5 6 57.5 7.4 0 .4-1.7 3.2-3.9 6.2-4.5 6.3-10 20.6-12.9 33.4-4.1 18.2-3.7 64 .7 81.2 6.1 23.8 17.5 43.2 33.3 57 17 14.7 32.7 21.6 56.8 24.9 11 1.5 13.1 1.5 27 0 22.1-2.4 38.6-7.2 63.4-18.3 19.2-8.6 42.6-21.3 60.2-32.8l8.2-5.3.6 4.8c.8 5.6 5.1 12.1 9.8 14.7 2.4 1.3 5.6 1.8 11.8 1.8 7.1 0 9.4-.4 14.2-2.7 7.8-3.6 13.6-10 18.9-20.5 5.2-10.2 13.4-23.3 30.8-49.3 25.4-37.9 37.4-54.5 57-78.5 12-14.7 36.1-39.6 36.8-37.9.6 1.7-9.1 27-16.9 43.9-3.8 8.2-11.5 24-17.1 35-11.8 23.1-11.2 22.4-30.7 31.1-15.1 6.7-22.2 11-21.8 13.3.3 1.2 3.2 2.1 12 3.7 6.5 1.1 11.9 2.2 12.2 2.5.2.2-2.7 6-6.5 12.8-7.4 13.5-8.7 18.3-6.9 25.1 3.1 11.5 16.8 16.2 29.5 10 7.3-3.5 11.2-7.8 19.1-20.7 35.2-57.8 93.4-126.2 126.2-148.2 3.5-2.4 6.5-4.1 6.7-3.9.2.2-5.6 12-12.9 26.3l-13.3 26-7 3.5c-3.8 1.9-10.3 5-14.5 6.8-8.4 3.7-11.8 6.6-10.1 8.3.6.6 6.4 2.4 12.8 3.9 6.3 1.5 11.9 3.1 12.3 3.5.4.4-.2 1.3-1.3 2.1s-4.1 3-6.7 4.9c-3.7 2.7-6.6 3.8-13.5 5-8.2 1.6-11.4 2.8-10.2 4 .3.2 3.6 1.1 7.3 1.9 3.7.7 6.9 1.6 7.2 1.9.3.2-.7 3.1-2.2 6.3-7.5 16.9-12.4 34.7-12.4 45.6 0 4.2.2 4.9 1.8 4.4 13.8-4.3 34.3-6.9 55.7-7l19-.2 9.4-8.9c8.3-8 23.7-24.8 32.9-36 3-3.7 2.9-3.1-2.6 9-6.6 14.6-13.7 33.1-14.7 38.7-.7 3.6-.6 3.7 3.7 5.9 6.9 3.5 13 8.4 16.8 13.4 3.3 4.4 3.7 4.6 7 4 11.6-2.2 22.5-12.1 28-25.2 3.9-9.3 15.2-34.2 28.3-62 5.2-11.2 10.7-23.4 12.2-27.2 2.2-5.7 4.2-8.5 12.3-17.2 19.8-20.9 50.8-47.2 74.4-63 11.4-7.6 22.9-13.9 25.5-13.9 3.5 0 3.3 7.5-.4 16.8-3.1 7.6-6.8 14.6-8.6 16-.7.5-7.7 1.4-15.5 2-13.2 1-16.3 1.5-15.1 2.6.2.2 5.9.8 12.7 1.4 6.8.5 12.6 1.2 12.8 1.5 1.3 1.3-3 5.5-6.7 6.6-4 1.2-4.1 1.3-3.5 4.7.6 3 .2 3.8-3.1 7.3l-3.8 3.9-24 1.2c-13.2.7-24.2 1.4-24.4 1.6-1.1 1 1.9 1.5 19.5 3 10.4.9 19.3 1.9 19.7 2.3 1.1 1-16.6 15-25.5 20.2-15.7 9.2-28.4 12.4-37.2 9.4-4.7-1.6-5-1.6-7.5.3-2.8 2.1-3.8 6.9-4 20.5l-.1 6.9-4 1.5c-2.2.9-4 2-4 2.4 0 1.1 2.7 3.6 6 5.6 1.6.9 3.2 2.3 3.4 3 .6 1.5-4 5.1-10.4 8.3-7.9 3.9-9.9 6.9-6.1 9 1.1.5 9.6 1.9 18.9 3 16.2 1.9 23.2 3.4 21.9 4.6-.3.4-7.7 2.4-16.3 4.5-20.2 5-22.7 6.9-9.6 7.7 5.7.4 7.3.9 10.7 3.7 2.2 1.8 5.9 4.2 8.3 5.4 6 3.1 28.5 10.7 35.7 12.1 13.6 2.8 33.9-2.4 48.3-12.2 17.1-11.7 47.4-42.4 65.2-66.1 2.3-3.2 4.5-5.6 4.7-5.4.2.2-.4 4.6-1.3 9.8-2 11.9-1.5 28.2 1.2 35.3 2.2 5.6 8.3 13 12.5 15.2 8.2 4.2 22.4 3.8 33.3-1 15-6.7 31.7-22.6 47.6-45.4 2.3-3.4 4.4-6.1 4.6-6 .1.2-.1 3.4-.5 7.3-1 9.1.4 22.5 3.1 29.8 2.6 7.2 9.4 15 15.9 18.3 7.4 3.7 18 5 28 3.5 15.4-2.4 26.1-8.5 41.4-23.6l9.1-9-1.8 4.7c-3.7 9.8-1.7 22.9 4.3 28.5 6.8 6.2 19.4 7.5 29 3.1 8.5-3.9 13.1-8.7 18.4-19.1 6.5-12.7 8.5-16.1 19-32.2 9.8-15 26.4-37.6 37.8-51.5 12-14.5 43.2-44.9 52.7-51.3 7.8-5.2 25.1-13.2 27.1-12.5 1.2.4-5.1 14.1-20.7 45.4-10.6 21.2-14.2 27.4-16.4 28.8-1.6.9-8.8 3.7-16 6.1-13.8 4.8-18 6.9-18 9.1 0 1.9 2.8 3.1 10.7 4.9 9.8 2.3 13.3 3.5 13.3 4.8 0 .6-1.6 5.3-3.6 10.3-4.2 10.9-.9 9.6-30.4 12-18 1.4-22.6 2.3-20.3 3.7.5.3 8.5 1.3 17.9 2.2 24 2.2 25.4 2.4 25.4 4.4 0 .9-.5 4.8-1 8.8-.8 6.5-.4 13 1.5 20.4l.6 2.6-12.3.7c-18.6 1-26 1.8-25.1 2.7 1 1 14.4 2.5 30.1 3.5 8.2.5 12.1 1.2 14.5 2.6 10.5 6 17.5 7.5 28.2 5.8 26.2-4.2 55.5-27.9 99.5-80.4 14.2-17 16-20.5 12.4-24-1.7-1.8-5.5-2.1-6.9-.7-.6.5-12 1.4-25.4 2-13.5.6-24.7 1.4-24.9 1.6-1.2 1.1 1.2 1.4 15.3 2 8.3.3 17.4.8 20.4 1.1l5.4.6-6 6-6 6-12.4 1.9c-16.3 2.5-18.1 2.9-17.6 4.2.3 1 2.9 1.8 13.1 4.1 2.9.7 2.9.7-4 5.8-9.5 7-13.4 8.5-30.1 11.9-8 1.6-15 3.2-15.4 3.5-2 1.2-.6 2.3 3.9 2.9 2.6.4 6.1 1 7.7 1.4l3 .8-4 2c-4.6 2.3-14.3 5.3-17.4 5.3-1.2 0-2.1-.6-2.1-1.4 0-3.5 14.6-26.5 40.4-63.6 31.9-45.8 42.1-67 43.3-90.1.5-9 .3-11.7-1.5-17.5-3.8-12.6-11.9-21.6-23-25.7-5.5-2-7.1-2.1-49.7-1.9-46.6.3-52 .6-52.9 2.8-.7 1.9.8 2.2 25.4 3.9 11.8.9 22.4 1.8 23.4 2.1 1.9.6 1.9.7 0 1.7-1 .6-4.4 3-7.5 5.4l-5.6 4.4-16.4 1.5c-16.2 1.6-17.8 1.8-16.6 3 .5.5 19 3.3 22.5 3.4.6 0-3 4.8-8 10.8-18.7 21.6-42.3 53.3-54.3 72.8-3.2 5.1-6 9.2-6.2 9.1-.1-.2 8.9-23.1 20.2-50.9 17.8-44 20.5-51.3 20.5-56 0-9.7-6.1-15.8-15.7-15.8-2.8 0-6.4.5-7.9 1-1.4.6-13.3 2.6-26.3 4.5-30.2 4.4-40.5 6.4-42.8 8-1.7 1.3-1.6 1.5 1.2 4.5 1.7 1.8 7.4 6.3 12.7 10.2 11.1 7.9 15.1 12 16.8 17.4 1.7 5.1.7 14.2-2.5 23.4-3.8 11-18.5 39.9-22 43.5-1.7 1.6-6.1 6.8-9.9 11.5-26.8 32.9-53.9 59.6-67.9 66.8-5.8 3-6.8 3.2-10.7 2.3-2.3-.5-4.7-1.4-5.4-2.1-1.6-1.6-1.1-11.5.9-18.5 4.5-15.6 16.7-41.7 29.2-62.6 8.3-13.8 9-15.5 9.9-21.7 1.2-9.6-3.3-18.8-11.6-23.3-5-2.7-56.9-2.2-64.4.7-1.9.7-1.7 2.4.5 3.6.8.4 5.6 2.6 10.8 4.7 5.2 2.2 10.1 4.7 10.9 5.4 1.2 1.3.8 2.8-3.3 11-2.6 5.2-4.4 10-4.1 10.6.4.6 1.7 1.1 2.8 1.1 1.2 0 1.8.3 1.4.7-.4.4-10 1.2-21.3 1.8l-20.6 1.1-3.3 3.9c-6.1 6.9-4.2 10 9.4 15.5 18.1 7.3 20.6 8.5 23.1 10.6 3.2 2.9 2 3-6.1.4-3.4-1.1-6.4-2-6.5-2-.1 0-2.1 2.8-4.4 6.2-13.7 20.4-31 40-42.8 48.7-18.3 13.6-25.8 9-21.8-13.4 2.2-12.2 7.6-26.4 17.2-45.4 20.3-40.2 50.9-76.2 74-87.2 9.9-4.7 15.8-3.7 22.7 3.9 5.1 5.6 6.4 8.2 4.7 9.3-1.9 1.2-7.7 2.8-13.3 3.5-6.1.9-6 2.4.2 1.9 2.6-.3 10.3-1 17.2-1.6 16.6-1.4 28.6-3.5 33.6-6 4.6-2.2 9.7-8.6 11.9-15 2.2-6 1.9-15.4-.5-20.4-2.9-6-16.3-18.6-23.6-22.3-14.4-7.3-31.7-8.6-47.4-3.7-11.1 3.5-23.8 10.1-32.5 16.9-14.2 11.2-11.6 10.2-35 12.6-23.4 2.3-24.5 2.5-24.5 4.6 0 1.8 3.8 3.5 16 6.9 14.4 4 13.9 3.3 7.2 11.8-3.2 4-8.3 10.9-11.4 15.3-6.2 8.7-9.3 11.2-26.1 20.4-11.2 6.2-17.7 11.3-17.7 14 0 2 2.7 4.2 10.8 8.5 2.8 1.6 5.2 3.4 5.2 4.2 0 .7-1.3 4.2-2.8 7.6-2.4 5.3-4.8 8-15.3 17.7-17.4 16-23 20.7-26.4 22-1.7.6-9.5 2.5-17.3 4.1-17.7 3.6-22.2 4.9-22.2 6.5 0 .7 2.8 1.7 7.3 2.4 3.9.7 8.8 1.6 10.7 1.9l3.5.7-5 3.7c-7 5.3-25.7 14.2-33.7 16.1-8.7 2.1-21.1 2.2-26.4.3-11.7-4.3-22.7-11.5-34.9-22.9l-6.9-6.5 7.1-.6c20.9-2 50.7-16.4 76.1-36.8 13.3-10.8 39.2-37.5 45.9-47.4 12.2-18.1 15.7-28.1 15.1-43.7-.4-12.5-3.1-19.2-10.4-26.3-6.2-6-10.8-8.3-19.4-9.5-21.3-3-45.8 9-75.4 37.1l-11 10.4 5.9-8c6.1-8.3 15-20.3 28.8-38.5 14.5-19.3 36.2-53.3 51.4-80.5 6.8-12.1 23.9-46.5 25.9-51.7 11.5-31.6 12.9-43 5.8-50.7-3.2-3.5-3.4-3.6-11.6-3.9-6.6-.2-9.4.2-13.8 1.9zm11 26c0 9.3-3.7 20.9-11.7 36.7-17.3 34.5-44.6 74.3-68.8 100.7l-5.5 6 7.1-16.5c16.4-38 33.2-71.3 52.8-104.4 7.9-13.4 20.8-28.6 24.4-28.6 1.4 0 1.7 1 1.7 6.1zM514.7 795c11.7 3.2 19 7.9 21.8 14 3.1 6.8 2.5 7.3-10.8 8.9-6.4.8-11.7 1.7-11.7 2.2 0 .8 4.1 1.5 14.8 2.5 3.9.3 7.4.9 7.7 1.3.2.5.2 2.4-.2 4.4-.7 4.3.8 4.1-30.8 6.3-19.6 1.3-25 2.2-23.4 3.9.3.2 11.7 1.4 25.4 2.5 13.6 1.1 24.9 2.1 25 2.2.1.2-.6 2.8-1.6 5.8s-1.5 5.8-1.1 6.2c.5.5 4.7 1.5 9.5 2.4 4.8.9 8.7 2 8.7 2.5s-.6.9-1.4.9c-.8 0-5.8.4-11.2 1-5.5.5-29.5 2.1-53.4 3.5-59.2 3.4-72 4.6-72 6.5 0 1.9 12.4 3.2 54.5 6 17.1 1.1 34.8 2.5 39.5 3 4.7.5 8.9 1 9.3 1 1.6 0-5.9 9.3-11.7 14.6-12.7 11.5-41.3 22.3-59.1 22.4-14.8 0-30.6-6.6-42.8-18l-7.5-7 2.5-6.3c9.4-23.2 23.5-45 39.2-60.7 27.5-27.4 55.8-38.6 80.8-32zM1236 639.2c.8.9 29 19.1 62.5 40.6l61 39 27.3.4c14.9.1 27.2.1 27.2-.2 0-.5-173.1-79-177.5-80.6-1.8-.6-1.8-.5-.5.8z"/><path d="M592.8 684.9c-49.4 22.9-90 42-90.4 42.4-1.1 1.1 20.4.8 27.6-.4 3.6-.6 11.4-1.1 17.3-1.1l10.8.1 61.7-40.1c58.3-37.8 66-42.9 63.7-42.7-.6.1-41.4 18.9-90.7 41.8zM930 733.1c-89.3 3.1-200 12.5-271.5 22.9-7.1 1-17 2.4-22 3-16.3 1.9-16.5 1.9-16.5 4.4 0 2.3.1 2.3 20.8 3 11.4.4 33.1 1.6 48.2 2.6 36.4 2.6 79.9 4.7 121 6 38.5 1.3 146.2 1.5 162.6.5l11.1-.7 1.8-3.7c.9-2 5.6-11 10.3-20.1 4.8-9.1 8.8-17.1 9-17.8.4-1.4-36.8-1.5-74.8-.1zM1113.2 750.2c-5.1 8.4-10 16.5-10.9 18-.9 1.5-1.5 2.9-1.3 3.1.3.3 12.4-.1 27-.9 14.6-.7 60.7-2.7 102.5-4.4 79.4-3.2 281.7-12.3 368.5-16.5 27.8-1.4 55.7-2.7 62-3 20.2-1 22-1.3 22-3.9v-2.3l-27.2-.7c-98.6-2.3-308.4-4.6-432.4-4.6h-101.1l-9.1 15.2zM1490 771.1c-19.5 1-37.4 1.8-39.7 1.8-2.4.1-4.3.4-4.3.8.1.5 8.1 5.9 17.9 12.1l17.9 11.3 37.3-.8c20.6-.4 40.9-.5 45.3-.1 14.4 1.3 23.1 5.2 32.9 14.7 11.4 10.9 15.8 20.2 17.8 36.9.9 7.7-.1 18.5-2.7 30.2-.5 2.4 2.7 4.6 56.4 39l57 36.5-3.2 2.1c-2.3 1.6-125.2 81.4-198.9 129.2-3.8 2.4-6.7 4.5-6.5 4.7.2.2 12.5 1.7 27.3 3.4 14.9 1.7 35.3 4.2 45.5 5.5l18.4 2.4 160.1-73.9c88-40.6 160.1-74.2 160.2-74.6.2-.6-395.7-180.4-401.6-182.3-.9-.3-17.6.2-37.1 1.1zM357 794.2c-17.1 7.9-16.5 7.6-15.9 8.3.5.4 30.7-1.2 37.8-2.1l4.3-.6-2.5-2.6c-1.4-1.5-3.3-4.4-4.2-6.5-.8-2-2.1-3.7-2.8-3.7-.6.1-8.2 3.3-16.7 7.2zM119.6 904.3C54.2 934.6.7 959.9.7 960.5c-.1.5 88.9 41.5 197.6 90.9l197.6 89.9 32.6-6.4c17.9-3.5 32.5-6.7 32.5-7 0-.3-1.5-1.4-3.3-2.4-3.2-1.7-3.8-1.7-11.5-.2-38.1 7.7-74 2-101-15.9-11-7.4-27.6-23.7-33.7-33.2-8.9-14-17.1-34.1-20.1-50-.8-4.2-2-8.2-2.7-8.8-.7-.6-21.2-13.9-45.6-29.5-41.7-26.6-44.2-28.4-42.4-29.9 1.1-.8 14.8-9.8 30.6-20 15.7-10.2 28.6-18.7 28.7-19 0-.6-44.5-8.1-48.1-8-5.6 0-12.6-3-16.3-7-4.1-4.6-5-7.4-4.3-13.6.9-8.6 8.3-15.1 23.2-20.4 10.8-3.8 22.5-4.9 51.5-5 10.7 0 27.4-.5 37-1 16.3-.8 18.1-1.1 25.8-4.1 8.5-3.3 10.2-4.9 5.5-4.9-2.8 0-75.9-4.5-88.8-5.5l-7-.5-118.9 55.3zM826 1043.7c-44.1 3.1-74.8 14.2-98.1 35.2-10.8 9.6-16.9 22.1-16.9 34.2 0 7.7 1.6 11.4 7.2 16.5 11.6 10.6 31.7 9.7 49.8-2.3 20.4-13.5 33.7-36.6 25.5-44.3-1.9-1.8-3.5-2.3-7.8-2.2-8.4.1-16.7 5.3-21.9 13.7-3.8 6.3-1.3 9.4 3.5 4.5 4.4-4.5 11-7.4 13.7-6 2.6 1.4 2.5 2.5-.9 8.6-3.7 6.4-13.5 15.5-20.3 18.8-18.5 9-35.7 2-31.7-12.9 1.7-6.3 5.3-11.8 11.9-17.8 19.7-18.3 47-28.2 87.1-31.7 20.2-1.7 35.9.8 45.5 7.3 11.5 7.6 13 20.6 4.3 35.4-4.7 8-24.6 27.8-34.4 34.2-4.4 2.9-12 7.2-17 9.6-8.6 4.1-22.4 9-23.2 8.1-.5-.4 20.4-38.7 29.3-53.7 7.7-12.9 16.5-24.8 23.3-31.4 2.8-2.7 5.1-5.3 5.1-5.7 0-.4-3-.8-6.6-.8-9.3 0-16.3 3.9-27.9 15.5-11.4 11.4-19.7 23.7-37 54.5-17.5 31.2-23.8 41.5-32 51.7-16 19.9-32.1 29.5-50 29.6-4.4 0-9.9-.5-12.2-1.1-6.4-1.9-13.4-7.1-16.8-12.6-2.7-4.4-3-5.8-2.9-12.5 0-6.3.5-8.5 2.8-12.9 6.1-11.9 17-19.2 29.7-20 6.7-.4 8.4-.1 13.2 2.1 3 1.4 7.3 4.3 9.6 6.6s4.3 4.1 4.6 4.1c1.1 0 .4-8.2-.8-11.3-1.8-4.2-8.4-10.1-13.3-11.8-2.3-.8-7.9-1.4-13.5-1.4-9.3 0-9.8.1-18.3 4.3-11.3 5.6-18.5 12.7-23.5 23.1-3.4 7.2-3.6 8.2-3.6 17.6 0 11.3 1.3 15.3 8.1 24.4 10.5 14 39.5 17.8 67.9 9 16.8-5.2 34.3-21.1 51.4-46.7l6.2-9.2h6.5c7.8 0 13.4 2 13.4 4.9 0 1.1-1.7 6.5-3.9 11.8-12.7 32.2-17.3 56.1-15.1 78.8 2.2 23.6 11.9 39.7 27 45 6.3 2.2 21.3 2 29.1-.5 11.2-3.4 24.7-13 28.5-20.2 1.2-2.3 2.1-10.8 1.1-10.8-.2 0-2.8 2.5-5.9 5.4-13.9 13.5-35.3 18.5-47.4 11-17.1-10.5-21.2-47.9-9-81.8 1.8-5 5.2-13.5 7.5-18.8 2.3-5.6 4.1-11.3 4.1-13.4 0-5.3-3.5-11.9-7.6-14.4-3.1-2-3.8-4-1.2-4 2.4 0 21-8.6 30.8-14.2 26.6-15.3 45.2-33.6 49.6-48.7 2.3-7.7 1.6-19.2-1.6-25.4-3.1-6.2-10.1-12.7-17.7-16.6-13.2-6.6-35.8-10-57.3-8.4z"/><path d="M1209.3 1046.2c-2.5 2.7-15.7 23-27.4 42l-8.4 13.7-1.1-5.2c-4.3-18.9-28.1-12.2-47.4 13.4-3.5 4.6-7.9 11.7-9.8 15.7-3.5 7.4-7.4 11.7-20.2 22.7-4.8 4-11.8 8.5-13.5 8.5-1.3 0-.3-5.4 1.9-10.4 1.3-3 6.2-12.1 10.9-20.3 4.7-8.1 8.8-16 9.2-17.4.8-3.4-1.6-5.9-5.9-5.9-1.8 0-5.5-.7-8.2-1.4-2.7-.8-5.8-1.4-6.9-1.3-1.8.2-2-.4-2-5.9 0-6.7-1.4-9.4-5-9.4-4.3 0-6.4 3-8.1 11.5-1.8 8.7-5.9 20.6-9.8 28.3-2.5 5-15.9 21.6-22.8 28.3-3.6 3.5-11.3 7.7-12.3 6.7-.3-.3 1.9-4.5 5-9.3 9.1-14.6 13-31.7 9-39.5-3.7-7.1-15-8-26.8-2.2-15.5 7.7-37.1 34-41.6 50.8-.9 3.4-2.2 4.9-7 8.3-10.4 7.2-20.4 11.4-27.7 11.5-8.7.1-10.9-2-10.9-10.3.1-4.8.8-7.3 4-13.6 7.4-14.6 21.5-26.7 27.4-23.6 4.2 2.3 2.1 10.3-4.7 17.3-2 2.1-3.3 4-2.9 4.4 1.3 1.3 9.6-3.8 14.2-8.7 5.3-5.6 7.5-10.2 7.5-15.4 0-5.1-2.3-9-6.6-11-4.9-2.3-10.8-1.6-18.8 2.4-13.6 6.7-34.3 33.8-37.5 49.1-.5 2.9-1.9 4.4-7.6 8.4-19.4 13.5-35.2 16.3-39.1 7-2.4-5.6-2-6.4 2.9-5.8 4.9.7 14.5-2.2 21-6.3 11.2-7.1 20.7-21.8 20.7-32.1 0-4.8-.4-5.8-3.4-8.8-3.1-3.1-3.9-3.4-9.3-3.4-9.1 0-14.8 3.3-27.3 15.9-7.5 7.6-11.8 12.9-15 18.6-17.6 31.2-8.4 49.1 20.7 40 9.7-3 21.8-8.8 30.4-14.5l5.6-3.7 1.1 2.9c1.3 3.6 8 6.7 14.2 6.8 9.6 0 30.5-7.8 41.2-15.6l5-3.6 3.2 3.5c3.7 4.1 8.1 5.2 16.2 4.4 5.9-.6 14.9-4.3 20-8.2 2-1.5 4.6-2.5 6.6-2.5 5.1 0 14.7-2.8 19.8-5.7 6-3.4 21.7-19.6 27.3-28 2.4-3.8 6.8-11.5 9.8-17.1l5.3-10.4 4.1.7c2.2.3 4.4 1 4.8 1.4.4.4-1.1 4.1-3.3 8.2-10.3 18.6-13.4 26.1-13.8 33-.4 6.2-.2 6.8 2.6 10 2.7 3 3.6 3.4 7.9 3.3 7-.1 15.6-4.9 29.1-16.2 3.7-3.2 5.2-4 5.2-2.8 0 3.1 3.8 9.2 6.5 10.4 6.1 2.8 13.7 1.1 22.9-5 3.2-2.2 5.5-3.5 5.2-3-.3.6-.2 2.2.4 3.6.8 2.2 1.6 2.6 4.8 2.6 8.4 0 24.6-6.3 35.9-14.1l4.3-3v3.9c0 3.3.6 4.5 3.4 7 1.9 1.6 5.1 3.5 7.2 4.2 5.1 1.7 21.3.7 28.5-1.7 8.7-2.9 20.7-10.2 27.7-16.9 5.4-5.2 6.3-6.5 6-9-.2-2.4-.8-3-3.3-3.2-2.5-.2-5 1.2-13 7.2-5.5 4.2-10.2 7.6-10.5 7.6-.3 0-.4-3.1-.2-6.8.3-4.5-.3-10.5-1.7-17.2-2.7-13.2-2.7-13.6.9-20.6 1.6-3.2 3-6 3-6.1 0-.1-1.8-.4-3.9-.8-6.2-1-7.6-2.6-7.6-8.3 0-5.4-2.3-9.2-5.5-9.2-3.7 0-5.7 3.4-8.4 14-4.7 18.7-11.2 29.4-27.9 46.3-5.2 5.2-19.9 13.8-21.2 12.5-.8-.7 6.3-12.2 38.3-62.2 19.2-30 21-33.2 19.9-36-1-2.7-10.8-2.2-13.4.6zm-47.7 55.9c1.4 1.6 1.9 3.6 1.9 8.3-.1 5-.8 7.4-3.7 13.1-6.8 13.3-14.4 20.9-22.2 22.2-2.8.4-3.9.1-6.1-2.1-2.5-2.5-2.7-3.3-2.3-9 .5-8.3 5.1-17.7 12.6-25.8 8.2-8.8 15.6-11.3 19.8-6.7zm58.4 21.9c2.1 13.8 2.2 14.8.6 17.8-2.1 4.2-5.6 6.3-11 6.9-3.5.4-4.8.1-6.5-1.6l-2.2-2.2 3.1-4.3c3.8-5.2 4-10.9.4-11.4-1.9-.3-1.4-1.4 5-11 3.9-5.9 7.4-10.3 7.7-9.7.3.5 1.6 7.5 2.9 15.5zm-198.3-3.5c5.8 4 2.6 18.6-6.7 31.3-2.6 3.7-3.4 4.1-4.6 3.1-2.3-1.9-5.4-8.5-5.4-11.3 0-4-1.6-3.9-5.3.5-5.2 6-6.8 14.3-4.2 21.1.6 1.5.2 1.8-2.3 1.8-6.1 0-8-8.1-4.4-17.8 5.2-13.6 20.7-29.3 29.7-30.1.6-.1 2 .6 3.2 1.4zm-130.9 26.7c.8 9-16 23.8-27 23.8-5 0-4.9-1.2 1.1-10.2 8.3-12.4 15.5-18.1 22.1-17.6 3.3.3 3.5.6 3.8 4z"/><path d="M1088 1091c0 2.5.5 3 3.8 3.9 2 .6 5.1 1.1 6.7 1.1 6.8 0 13.3 7.2 12.1 13.5-.4 1.7-3.7 8.6-7.5 15.1-3.7 6.5-6.7 12.1-6.5 12.3.2.2 2.1-1.1 4.3-2.8 2.7-2.2 5.3-5.8 8.1-11.3 5.2-10.4 9.6-16.4 19.4-26.6l8-8.2H1088v3zM1010 1090.1c-15.1.5-41.9 1.5-59.5 2.4-17.6.8-33.8 1.5-36 1.5h-4l-3.3 7.3c-1.8 4-5.5 10.1-8.2 13.5-2.8 3.3-5 6.3-5 6.5 0 .3 1.2.8 2.8 1.2 6.6 1.6 13.1 9.9 13.2 16.7 0 1.6.3 2.8.8 2.8.4 0 3-3 5.7-6.6 13.4-17.9 32.8-28.4 44.9-24.4 7.1 2.3 13.5 10.3 13.6 16.8 0 1.3.4 2.2.8 2 .5-.2 3.6-3.5 6.9-7.4 14.4-16.7 29.6-25.1 43.8-24.2 7.2.4 11.7 3 15.6 8.6 2.2 3.2 2.4 4.6 2.4 13.9 0 5.7.2 10.3.5 10.3s2-2.1 3.7-4.8c4.2-6 9-18.3 11.3-29l1.8-8.2-12.1.2c-6.7 0-24.6.5-39.7.9zM1242.9 1096.6l-3.2 6.7 2.2 11.1c1.3 6.1 2.4 11.2 2.5 11.3.2.2 2.7-1.5 5.6-3.7 4.4-3.3 6.2-4 9.8-4 3.7 0 5 .6 7.8 3.4 3.7 3.7 4.4 7.4 2.2 12.1-.6 1.4-.9 2.7-.7 3 .3.2 14.8-.2 32.4-1 17.6-.8 44.8-1.9 60.5-2.5 112.5-4.3 256.3-12.2 254.3-14.1-1.4-1.2-55.5-7.9-107.3-13.3-71.5-7.5-203-15.6-252.2-15.6h-10.7l-3.2 6.6zM853.5 1097.7c-2.2.1-6.3.5-9.1.8l-5 .6-5.1 8.7c-9.2 15.8-17.4 31.3-17.1 32.3.4 1.2 13.6-5.5 21.8-11.1 9.4-6.4 18.9-14.9 25.1-22.6 8.1-10 8-9.4.2-9.2-3.7.1-8.6.3-10.8.5zM746 1106.5l-10.5 1-.3 3.5c-.5 4.6 1.7 6 9.2 6 4.7 0 7.6-.7 12.4-3 3.4-1.6 6.2-3.1 6.2-3.3 0-.3-1.5-1.5-3.2-2.9-3.2-2.3-3.5-2.3-13.8-1.3zM693 1111.7c-110.5 12.3-223.1 30.1-305 48.2-28.6 6.4-60 14.3-60 15.1 0 .5 2.6.6 5.7.4 3.2-.2 17.7-.8 32.3-1.4 29.5-1.1 118.6-5 187.5-8 24.8-1.1 59.1-2.6 76.4-3.4 28.9-1.2 31.5-1.5 32.4-3.2.5-1.1 4.2-5.1 8.1-8.9 10.6-10.4 23.7-16.4 35.9-16.5 2.6 0 4.7-.2 4.7-.4 0-.3-1.4-2.7-3-5.3-1.7-2.8-3.6-7.6-4.2-11.1-1.3-6.9-.8-6.6-10.8-5.5zM777 1129.2c-11 8.6-26.3 14.8-36.5 14.8-2.6 0-4.5.3-4.3.7.3.5 1.7 3.6 3.3 7l2.9 6.1 11.5-.5c8.9-.4 11.9-.9 12.9-2.1 2-2.6 17.4-30.3 17-30.7-.2-.2-3.3 1.9-6.8 4.7zM1487.5 1143.7c-3.8.2-18.8 1-33.3 1.7l-26.2 1.4-95.3 61.8c-108.3 70.2-96.2 62.3-95.6 62.9.4.3 184.2-84.1 275.4-126.5l4-1.8-11 .1c-6 0-14.1.2-18 .4zM516.5 1184.1c-7.1.3-15.2.7-17.9.8-2.7 0-4.7.4-4.3.7 1.4 1.4 191.1 87.3 191.6 86.8.3-.3-.1-.9-.9-1.4-.8-.5-32.1-20.5-69.5-44.4l-68-43.6-9 .2c-4.9.1-14.8.5-22 .9z"/></svg>